<svg xmlns="http://www.w3.org/2000/svg" width="50" height="50" viewBox="0 0 50 50"><g transform="translate(-3 -2.5)"><path d="M-710.684-4696a8.262,8.262,0,0,1-5.88-2.436,8.262,8.262,0,0,1-2.435-5.88v-33.368a8.261,8.261,0,0,1,2.435-5.88,8.26,8.26,0,0,1,5.88-2.436h33.369a8.258,8.258,0,0,1,5.88,2.436,8.259,8.259,0,0,1,2.436,5.88v33.368a8.26,8.26,0,0,1-2.436,5.88,8.259,8.259,0,0,1-5.88,2.436Zm33.369-1.579.157,0v-6.314h-8.226v6.316Zm-8.332,0v-6.316h-8.221v6.316Zm-8.484,0v-6.316h-8.221v6.316Zm-16.552,0h8.069v-6.316h-8.227v6.314Zm33.789-.013a6.687,6.687,0,0,0,4.342-1.961,6.687,6.687,0,0,0,1.961-4.342h-6.3Zm-38.553-1.961a6.687,6.687,0,0,0,4.342,1.961v-6.3h-6.3A6.687,6.687,0,0,0-715.448-4699.553Zm44.867-4.605q0-.079,0-.158v-8.063h-6.316v8.222Zm-6.577,0v-8.222h-8.226v8.223Zm-8.489,0v-8.223h-8.221v8.224Zm-8.484,0v-8.224h-8.221v8.225Zm-8.484,0v-8.225h-8.227v8.226Zm-8.49,0v-8.226h-6.316v8.068q0,.079,0,.158Zm40.526-8.484v-8.226h-6.316v8.225Zm-6.579,0v-8.225h-8.226v8.224Zm-8.489,0v-8.224h-8.221v8.224Zm-8.484,0v-8.224h-8.221v8.223Zm-8.484,0v-8.223h-8.227v8.222Zm-8.49,0v-8.222h-6.316v8.221Zm40.526-8.485v-.356a.794.794,0,0,1-.295-.18l-6.021-5.735v6.271Zm-6.579,0v-6.522l-1.785-1.7H-683.9l-1.48,1.48v6.742Zm-8.489,0v-6.479l-5.737,5.737-2.484-.781v1.523Zm-8.484,0v-1.605l-8.221-2.583v4.188Zm-8.484,0v-4.271l-7.427-2.333-.8.686v5.919Zm-8.49,0v-5.693l-6.047,5.183a.863.863,0,0,1-.269.152v.359Zm-6.316-2.384,6.316-5.415v-.427h-6.316Zm46.842-.073v-5.764h-6.053Zm-21.247-.1,5.67-5.67h-7.712v5.029Zm-2.306-.725v-4.946h-8.221v2.362Zm-8.484-2.667v-2.28h-7.255Zm-8.227-2.08.234-.2h-.234Zm40.263-.46v-8.068c0-.053,0-.105,0-.157h-6.314v8.225Zm-8.641,0-2.265-2.157-2.156,2.157Zm-6.674,0,.246-.246v-7.978h-8.221v8.223Zm-8.239,0v-8.223h-8.221v8.222Zm-8.484,0v-8.222h-8.227v8.221Zm-8.49,0v-8.221h-6.314c0,.052,0,.1,0,.157v8.063Zm33.947-.235v-7.986h-8.226v7.715l3.874-3.874Zm6.566-8.25a6.686,6.686,0,0,0-1.961-4.343,6.681,6.681,0,0,0-4.342-1.96v6.3Zm-6.566,0v-6.314h-8.226v6.316Zm-8.489,0v-6.316h-8.221v6.316Zm-8.484,0v-6.316h-8.221v6.316Zm-8.484,0v-6.316h-8.227v6.314Zm-8.49,0v-6.3a6.683,6.683,0,0,0-4.342,1.96,6.686,6.686,0,0,0-1.961,4.343Z" transform="translate(722 4748.5)"/></g></svg>