<svg xmlns="http://www.w3.org/2000/svg" width="50" height="49.746" viewBox="0 0 50 49.746"><defs><style>.a{fill:#000;}</style></defs><g transform="translate(-0.233 -0.54)"><path class="a" d="M-673.928-5464.784a3.641,3.641,0,0,1-3.172-3.328c-.04-.372-.161-.492-.527-.588a20.412,20.412,0,0,1-4.9-2.071.635.635,0,0,0-.291-.1.468.468,0,0,0-.3.136,4.083,4.083,0,0,1-2.534.965,3.974,3.974,0,0,1-2.789-1.256q-.965-.943-1.925-1.91a3.708,3.708,0,0,1-.327-5.268.521.521,0,0,0,.04-.674,20.138,20.138,0,0,1-2.126-5.042.4.4,0,0,0-.412-.342,3.629,3.629,0,0,1-3.057-1.965,5,5,0,0,1-.472-1.769c-.08-.971-.025-1.965-.025-2.94a3.79,3.79,0,0,1,3.322-3.94.752.752,0,0,0,.729-.629,18.451,18.451,0,0,1,2.081-4.881.322.322,0,0,0-.03-.447,3.636,3.636,0,0,1,.126-5.142c.779-.844,1.6-1.644,2.423-2.442a3.5,3.5,0,0,1,2.508-.955h.031a3.588,3.588,0,0,1,2.408.939.539.539,0,0,0,.346.161.62.62,0,0,0,.322-.115,21.467,21.467,0,0,1,5.021-2.111.433.433,0,0,0,.372-.432,3.732,3.732,0,0,1,3.88-3.509c.653,0,1.307-.02,1.965-.02l-.02,0c.463,0,.93.01,1.393.041a3.7,3.7,0,0,1,3.438,3.438c.04.332.182.428.483.513a18.2,18.2,0,0,1,4.866,2.041.753.753,0,0,0,.367.126.64.64,0,0,0,.407-.191,3.654,3.654,0,0,1,2.388-.885,3.9,3.9,0,0,1,2.693,1.106c.744.718,1.478,1.458,2.2,2.2a3.705,3.705,0,0,1,.232,5.122.512.512,0,0,0-.031.7,18.489,18.489,0,0,1,2.066,5.012c.07.291.262.307.472.331a3.925,3.925,0,0,1,2.4,1.126,3.4,3.4,0,0,1,1.061,2.252,29.809,29.809,0,0,1-.01,3.91,3.674,3.674,0,0,1-3.428,3.358.517.517,0,0,0-.513.453,19.421,19.421,0,0,1-2.131,5.026c-.151.241-.07.388.075.573a4.111,4.111,0,0,1,.925,2.2,3.494,3.494,0,0,1-1.011,2.8q-1.153,1.221-2.372,2.372a3.8,3.8,0,0,1-2.609,1.066,3.809,3.809,0,0,1-2.438-.91.612.612,0,0,0-.382-.171.756.756,0,0,0-.352.121,19.818,19.818,0,0,1-5.036,2.065c-.282.065-.287.231-.312.433a3.766,3.766,0,0,1-2.825,3.408,2.808,2.808,0,0,1-.638.1h-.045c-.618,0-1.232.009-1.85.009C-672.5-5464.714-673.215-5464.724-673.928-5464.784Zm-7.856-7.319a18.689,18.689,0,0,0,4.554,1.935,2.057,2.057,0,0,1,1.649,1.9,2.148,2.148,0,0,0,1.784,1.98c.734.056,1.477.066,2.04.066h1.9c.04,0,.17-.035.251-.055a2.27,2.27,0,0,0,1.709-2.116,1.867,1.867,0,0,1,1.442-1.729,18.317,18.317,0,0,0,4.66-1.915,2.183,2.183,0,0,1,1.1-.317,2.074,2.074,0,0,1,1.347.518,2.311,2.311,0,0,0,1.478.563,2.292,2.292,0,0,0,1.578-.658c.784-.74,1.563-1.519,2.307-2.308a1.985,1.985,0,0,0,.6-1.639,2.667,2.667,0,0,0-.613-1.412,1.9,1.9,0,0,1-.171-2.287,17.908,17.908,0,0,0,1.965-4.64,2.012,2.012,0,0,1,1.784-1.543,2.226,2.226,0,0,0,2.111-2,29.313,29.313,0,0,0,0-3.7,1.906,1.906,0,0,0-.623-1.257,2.388,2.388,0,0,0-1.513-.693,1.884,1.884,0,0,1-1.764-1.482,17.1,17.1,0,0,0-1.9-4.6,1.993,1.993,0,0,1,.166-2.412,2.2,2.2,0,0,0-.145-3.111c-.719-.739-1.448-1.468-2.177-2.176a2.4,2.4,0,0,0-1.644-.684,2.173,2.173,0,0,0-1.412.523,2.1,2.1,0,0,1-1.382.548,2.171,2.171,0,0,1-1.146-.342,16.65,16.65,0,0,0-4.478-1.875,2.016,2.016,0,0,1-1.588-1.794,2.2,2.2,0,0,0-2.036-2.106c-.382-.025-.794-.036-1.3-.036l0,.016c-.367,0-.739,0-1.105.01-.282.005-.568.01-.849.01a2.232,2.232,0,0,0-2.393,2.161,1.926,1.926,0,0,1-1.423,1.709,20.381,20.381,0,0,0-4.684,1.96,2.13,2.13,0,0,1-1.106.332,2.009,2.009,0,0,1-1.337-.533,2.086,2.086,0,0,0-1.417-.568,1.952,1.952,0,0,0-1.483.523c-.835.809-1.619,1.568-2.362,2.383a2.142,2.142,0,0,0-.076,3.156,1.812,1.812,0,0,1,.186,2.156l-.01.021-.01.02a16.969,16.969,0,0,0-1.91,4.483,2.242,2.242,0,0,1-1.935,1.734,2.279,2.279,0,0,0-2.066,2.458c0,.287-.01.578-.01.875-.01.684-.02,1.327.03,1.94a3.462,3.462,0,0,0,.322,1.222c.216.447.623.97,1.895,1.136a1.89,1.89,0,0,1,1.689,1.493,18.445,18.445,0,0,0,1.97,4.645,2,2,0,0,1-.145,2.317l-.01.015-.01.015a2.22,2.22,0,0,0,.206,3.272c.568.578,1.192,1.2,1.91,1.895a2.488,2.488,0,0,0,1.734.825,2.58,2.58,0,0,0,1.593-.633,1.923,1.923,0,0,1,1.247-.468A2.1,2.1,0,0,1-681.785-5472.1Zm10.013-2.167a15.4,15.4,0,0,1-15.371-15.265,15.41,15.41,0,0,1,15.366-15.38h.141a15.423,15.423,0,0,1,15.275,15.185,15.186,15.186,0,0,1-4.595,11.039c0,.016,0,.033,0,.049h-.051a15.4,15.4,0,0,1-10.62,4.373Zm0-1.508h.131a13.835,13.835,0,0,0,9.053-3.46,8.98,8.98,0,0,0-8.948-8.372,8.975,8.975,0,0,0-8.964,8.729A13.8,13.8,0,0,0-671.772-5475.777Zm-13.863-13.767a13.772,13.772,0,0,0,3.645,9.262,10.613,10.613,0,0,1,8.22-8.7,5.381,5.381,0,0,1-3.14-4.887,5.382,5.382,0,0,1,5.373-5.374,5.383,5.383,0,0,1,5.374,5.374,5.384,5.384,0,0,1-3.141,4.887,10.609,10.609,0,0,1,8.149,8.295,13.59,13.59,0,0,0,3.285-9.025,13.865,13.865,0,0,0-13.767-13.7l0,.005h-.131A13.908,13.908,0,0,0-685.635-5489.544Zm10.334-4.328a3.769,3.769,0,0,0,3.765,3.765,3.769,3.769,0,0,0,3.765-3.765,3.77,3.77,0,0,0-3.765-3.765A3.77,3.77,0,0,0-675.3-5493.872Z" transform="translate(697 5515)"/></g></svg>