<svg xmlns="http://www.w3.org/2000/svg" width="50" height="47.628" viewBox="0 0 50 47.628"><defs><style>.a{fill:#000;}</style></defs><g transform="translate(-0.29 -2.162)"><path class="a" d="M-405.3-5504.209a8.4,8.4,0,0,0-8.394-8.394,8.4,8.4,0,0,0-8.394,8.394h-1.51a9.879,9.879,0,0,1,3.174-7.259,8.4,8.4,0,0,0-8.388-8.065,8.4,8.4,0,0,0-8.394,8.395h-1.5a9.922,9.922,0,0,1,7.472-9.6,5.04,5.04,0,0,1-2.6-4.4,5.041,5.041,0,0,1,5.033-5.032,5.04,5.04,0,0,1,5.033,5.032,5.04,5.04,0,0,1-2.6,4.4,9.933,9.933,0,0,1,7.37,8.176,9.837,9.837,0,0,1,3.226-1.327,5.042,5.042,0,0,1-2.948-4.58,5.041,5.041,0,0,1,5.033-5.033,5.041,5.041,0,0,1,5.033,5.033,5.042,5.042,0,0,1-2.948,4.58,9.851,9.851,0,0,1,3.194,1.307,9.934,9.934,0,0,1,7.366-8.155,5.04,5.04,0,0,1-2.6-4.4,5.041,5.041,0,0,1,5.033-5.032,5.04,5.04,0,0,1,5.033,5.032,5.04,5.04,0,0,1-2.6,4.4,9.922,9.922,0,0,1,7.472,9.6h-1.51a8.4,8.4,0,0,0-8.4-8.395A8.4,8.4,0,0,0-407-5511.5a9.881,9.881,0,0,1,3.213,7.3Zm-11.917-14.263a3.527,3.527,0,0,0,3.523,3.523,3.527,3.527,0,0,0,3.523-3.523,3.526,3.526,0,0,0-3.523-3.522A3.526,3.526,0,0,0-417.215-5518.472Zm15.078-6.673a3.527,3.527,0,0,0,3.523,3.523,3.527,3.527,0,0,0,3.523-3.523,3.526,3.526,0,0,0-3.523-3.522A3.527,3.527,0,0,0-402.138-5525.146Zm-30.191,0a3.527,3.527,0,0,0,3.523,3.523,3.527,3.527,0,0,0,3.523-3.523,3.526,3.526,0,0,0-3.523-3.522A3.527,3.527,0,0,0-432.329-5525.146Zm17.5-.966a1.89,1.89,0,0,1-1.646-1.727c-.02-.2-.081-.257-.271-.307a10.6,10.6,0,0,1-2.542-1.072.226.226,0,0,0-.307.02,1.952,1.952,0,0,1-2.758-.151c-.332-.322-.669-.654-1-.986a1.917,1.917,0,0,1-.171-2.728.267.267,0,0,0,.02-.348,10.473,10.473,0,0,1-1.1-2.612c-.025-.121-.086-.161-.211-.176a1.88,1.88,0,0,1-1.585-1.017,2.6,2.6,0,0,1-.247-.916c-.04-.5-.01-1.017-.01-1.525a1.965,1.965,0,0,1,1.721-2.042.4.4,0,0,0,.377-.328,9.5,9.5,0,0,1,1.077-2.527.165.165,0,0,0-.015-.231,1.884,1.884,0,0,1,.066-2.663c.4-.442.825-.855,1.253-1.268a1.793,1.793,0,0,1,1.3-.493,1.9,1.9,0,0,1,1.264.487.247.247,0,0,0,.347.026,11.121,11.121,0,0,1,2.6-1.092.227.227,0,0,0,.191-.227,1.932,1.932,0,0,1,2.008-1.817c.579,0,1.163-.025,1.741.011a1.92,1.92,0,0,1,1.782,1.781c.02.176.1.222.252.267a9.331,9.331,0,0,1,2.521,1.057.287.287,0,0,0,.4-.03,1.942,1.942,0,0,1,2.632.116c.388.372.77.754,1.142,1.142a1.917,1.917,0,0,1,.121,2.652.266.266,0,0,0-.015.363,9.653,9.653,0,0,1,1.067,2.6c.036.15.136.161.247.171a2.043,2.043,0,0,1,1.248.584,1.768,1.768,0,0,1,.548,1.168l-.01,0a15.085,15.085,0,0,1,0,2.022,1.909,1.909,0,0,1-1.777,1.741.264.264,0,0,0-.266.231,10.154,10.154,0,0,1-1.107,2.6c-.076.125-.035.2.041.3a2.141,2.141,0,0,1,.478,1.143,1.806,1.806,0,0,1-.523,1.449c-.4.417-.805.831-1.228,1.228a1.931,1.931,0,0,1-2.617.081.277.277,0,0,0-.383-.03,10.348,10.348,0,0,1-2.606,1.067c-.147.035-.151.121-.161.226a1.947,1.947,0,0,1-1.465,1.767,1.682,1.682,0,0,1-.352.051c-.329,0-.659.006-.989.006C-414.1-5526.075-414.464-5526.083-414.825-5526.111Zm-4.051-4.58c.262.156.528.312.8.453a10.047,10.047,0,0,0,2.1.765,1.171,1.171,0,0,1,.981,1.147c.015.116.025.236.046.352a.417.417,0,0,0,.428.408c.553.01,1.107.015,1.66,0a.409.409,0,0,0,.423-.388c.025-.116.035-.242.055-.368a1.166,1.166,0,0,1,.886-1.132,9.95,9.95,0,0,0,3.06-1.268.948.948,0,0,1,1.072.015c.181.116.342.267.518.388a2.721,2.721,0,0,0,.332.171c.106-.046.217-.056.277-.116.413-.4.816-.81,1.213-1.218a.374.374,0,0,0,.04-.528c-.126-.176-.257-.353-.387-.523a.941.941,0,0,1-.081-1.132,10.784,10.784,0,0,0,1.3-3.135,1.015,1.015,0,0,1,.825-.775c.211-.045.428-.076.639-.111h.01a.419.419,0,0,0,.413-.422c.01-.548.01-1.1,0-1.65a.415.415,0,0,0-.4-.428c-.2-.035-.393-.056-.584-.091a1.015,1.015,0,0,1-.9-.8,10.538,10.538,0,0,0-1.273-3.095.916.916,0,0,1,0-1.047c.121-.191.257-.367.388-.549.206-.3.211-.412-.041-.684-.357-.383-.735-.745-1.107-1.113a.38.38,0,0,0-.569-.05c-.171.1-.327.241-.488.357a1.021,1.021,0,0,1-1.248.061,7.567,7.567,0,0,0-.976-.528c-.675-.262-1.364-.5-2.053-.709a1.093,1.093,0,0,1-.846-.926c-.02-.171-.046-.332-.071-.5-.05-.333-.181-.463-.508-.463-.518-.01-1.036,0-1.555,0a.418.418,0,0,0-.464.413c-.03.2-.05.4-.08.6a1.028,1.028,0,0,1-.8.866c-.14.041-.287.071-.428.111a10.366,10.366,0,0,0-2.662,1.158,1.007,1.007,0,0,1-1.213-.076c-.166-.121-.337-.246-.508-.373a.379.379,0,0,0-.528.035c-.4.4-.8.786-1.183,1.188a.383.383,0,0,0-.03.568c.125.187.266.353.4.539a.981.981,0,0,1,.03,1.157,10.052,10.052,0,0,0-1.273,3.075.886.886,0,0,1-.634.694c-.266.081-.554.115-.835.171-.252.056-.413.187-.413.408-.01.548-.015,1.1,0,1.65,0,.308.116.4.433.453.191.035.372.056.564.086a.99.99,0,0,1,.876.765,10.877,10.877,0,0,0,1.288,3.135.983.983,0,0,1-.07,1.177c-.116.151-.237.307-.347.469-.177.247-.182.362.015.573.388.408.785.8,1.188,1.183a.39.39,0,0,0,.569.015c.161-.116.312-.247.468-.357a1.159,1.159,0,0,1,.669-.234A1.134,1.134,0,0,1-418.876-5530.691Zm-1.731-8.229a6.92,6.92,0,0,1,6.9-6.91l-.006,0a6.935,6.935,0,0,1,6.93,6.824,6.916,6.916,0,0,1-6.859,6.951h-.064A6.921,6.921,0,0,1-420.607-5538.92Zm12.315-.01a5.4,5.4,0,0,0-5.4-5.4,5.408,5.408,0,0,0-5.41,5.41,5.387,5.387,0,0,0,5.4,5.351A5.341,5.341,0,0,0-408.292-5538.93Z" transform="translate(439 5554)"/></g></svg>