<svg xmlns="http://www.w3.org/2000/svg" width="50" height="47.398" viewBox="0 0 50 47.398"><g transform="translate(0 -2.6)"><path d="M37.015,47.393a.7.7,0,0,1-.64-.4.713.713,0,0,1,.33-.955,21.815,21.815,0,0,0,11.878-15.7.714.714,0,1,1,1.405.255A23.245,23.245,0,0,1,37.33,47.329a.691.691,0,0,1-.315.069ZM0,23.2a23.2,23.2,0,1,1,23.2,23.2A23.22,23.22,0,0,1,0,23.2Zm1.43,0A21.767,21.767,0,1,0,23.2,1.43,21.791,21.791,0,0,0,1.43,23.2Zm1.07,0A20.7,20.7,0,1,1,23.2,43.894V43.9A20.72,20.72,0,0,1,2.5,23.2Zm1.425,0A19.272,19.272,0,1,0,23.2,3.929,19.295,19.295,0,0,0,3.924,23.2Zm16.453-.031a2.824,2.824,0,0,1,2.105-2.727V5.629a.715.715,0,1,1,1.43,0v14.81a2.82,2.82,0,1,1-3.535,2.727Zm1.43,0a1.39,1.39,0,1,0,1.39-1.39A1.393,1.393,0,0,0,21.807,23.167Z" transform="translate(0 2.6)"/></g></svg>