<svg xmlns="http://www.w3.org/2000/svg" width="50" height="47.409" viewBox="0 0 50 47.409"><g transform="translate(-0.126 -2.01)"><path d="M-864.617-4043.642a5.3,5.3,0,0,1-5.3-5.305v-7.011a5.307,5.307,0,0,1,5.3-5.3h38.857a5.3,5.3,0,0,1,5.305,5.3v7.011a5.306,5.306,0,0,1-5.305,5.305Zm.05-4.833a.681.681,0,0,0,.678.678h15.062v.441a1.219,1.219,0,0,0,1.215,1.215h4.256a1.219,1.219,0,0,0,1.215-1.215v-.441h15.654a.681.681,0,0,0,.677-.678.681.681,0,0,0-.677-.678h-15.654v-.437a1.219,1.219,0,0,0-1.215-1.214h-4.256a1.219,1.219,0,0,0-1.215,1.214v.437h-15.062A.681.681,0,0,0-864.566-4048.475Zm0-7.413a.681.681,0,0,0,.678.677h4.9v.437a1.219,1.219,0,0,0,1.215,1.215h4.256a1.219,1.219,0,0,0,1.215-1.215v-.437h25.813a.674.674,0,0,0,.677-.677.674.674,0,0,0-.677-.678H-852.3v-.441a1.219,1.219,0,0,0-1.215-1.215h-4.256a1.219,1.219,0,0,0-1.215,1.215v.441h-4.9A.681.681,0,0,0-864.566-4055.887Zm29.283-13.956-4.276-6.774q-1.99-3.151-3.979-6.3-4.755,3.734-9.517,7.478l-.455.357-.3-.461-4.632-7.128-4.179-6.43q-1.578,2.842-3.158,5.683-1.782,3.208-3.564,6.416l-.878-.488q1.781-3.208,3.564-6.416t3.562-6.413l.405-.73.455.7q2.315,3.565,4.633,7.13l4.333,6.668,9.545-7.5.438-.344.3.471,4.276,6.772,3.761,5.956q1.287-3.091,2.576-6.182c1.37-3.288,2.787-6.689,4.179-10.035l.318-.766.531.637q1.779,2.137,3.561,4.274l3.565,4.278-.771.643q-1.781-2.14-3.565-4.278l-3.032-3.637c-1.289,3.1-2.6,6.232-3.861,9.269q-1.475,3.538-2.948,7.075l-.372.893Z" transform="translate(870.346 4093.061)"/></g></svg>