<svg xmlns="http://www.w3.org/2000/svg" width="50" height="50.154" viewBox="0 0 50 50.154"><g transform="translate(-4.23 -3.3)"><path d="M-837.829-4012.136c0-1.341.949-2.51,2.58-3.508-1.63-1-2.58-2.167-2.58-3.5s.949-2.505,2.58-3.5c-1.63-1-2.58-2.172-2.58-3.508s.949-2.506,2.58-3.5c-1.63-1-2.58-2.162-2.58-3.5s.949-2.51,2.58-3.507c-1.63-1-2.58-2.168-2.58-3.5s.949-2.506,2.58-3.5c-1.63-1-2.58-2.167-2.58-3.508,0-4.9,12.787-7.553,24.819-7.553s24.819,2.65,24.819,7.553c0,1.341-.95,2.51-2.58,3.508,1.63,1,2.58,2.168,2.58,3.5a2.712,2.712,0,0,1-.081.659c-.531-.08-1.062-.171-1.593-.262a1.265,1.265,0,0,0,.064-.4c0-.885-.944-1.8-2.661-2.639a27.054,27.054,0,0,1-4.28,1.416c-.965-.295-1.92-.628-2.864-.992a37.657,37.657,0,0,0,5.021-1.292,18.366,18.366,0,0,0,2.119-.864c1.722-.837,2.666-1.754,2.666-2.639,0-2.811-9.532-5.944-23.21-5.944s-23.21,3.133-23.21,5.944c0,.885.944,1.8,2.666,2.639a18.314,18.314,0,0,0,2.118.864c4.1,1.41,10.583,2.44,18.425,2.44q2.72,0,5.208-.156c-.858.252-1.716.493-2.585.719q-2.285.587-4.614,1.019c-2.521-.059-5.036-.231-7.434-.515h-.011a41.293,41.293,0,0,1-11.114-2.639c-1.717.842-2.66,1.754-2.66,2.639s.938,1.8,2.655,2.639a18.884,18.884,0,0,0,2.124.868h0a53.834,53.834,0,0,0,13.936,2.323v1.6c-1.668-.085-3.32-.23-4.914-.419a41.477,41.477,0,0,1-11.146-2.638c-1.717.842-2.66,1.754-2.66,2.638s.938,1.8,2.655,2.639a19.884,19.884,0,0,0,2.124.864,53.7,53.7,0,0,0,13.946,2.327v.751c0,.284,0,.563.005.848-1.674-.091-3.326-.231-4.925-.423a41.284,41.284,0,0,1-11.152-2.639c-1.717.842-2.655,1.754-2.655,2.639s.944,1.8,2.66,2.638a18.774,18.774,0,0,0,2.124.869,54.354,54.354,0,0,0,14.472,2.35c.053.236.118.467.188.7a9.455,9.455,0,0,0,.306.934c-2.028-.086-4.034-.241-5.965-.472a41.517,41.517,0,0,1-11.13-2.645c-1.717.842-2.655,1.754-2.655,2.639s.944,1.8,2.66,2.639a18.783,18.783,0,0,0,2.086.856l.038.013c4.056,1.389,10.428,2.409,18.146,2.436a16.17,16.17,0,0,0,1.609,1.6c-.445.005-.89.011-1.33.011-7.735,0-15.781-1.094-20.544-3.181-1.722.837-2.666,1.754-2.666,2.639,0,2.811,9.531,5.944,23.21,5.944a78.643,78.643,0,0,0,9.1-.5c.52.289,1.035.579,1.55.874a.78.78,0,0,0,.837-.091c.981-.558,1.974-1.094,2.961-1.641,5.476-1.17,8.76-2.929,8.76-4.581a1.968,1.968,0,0,0-.713-1.363c.338-.4.659-.82.96-1.249a3.515,3.515,0,0,1,1.362,2.612c0,4.9-12.788,7.553-24.819,7.553S-837.829-4007.234-837.829-4012.136Zm35.611,4.887c-2.242-1.271-4.548-2.446-6.689-3.862-.268-.177-.531-.359-.783-.552a17.11,17.11,0,0,1-1.824-1.55,15.247,15.247,0,0,1-3.561-5.412h0c-.118-.3-.222-.6-.319-.9l-.041-.13c-.064-.193-.123-.392-.177-.59q-.233-.845-.386-1.738a14.239,14.239,0,0,1-.193-2.339c0-.45-.005-.9,0-1.346-.005-.322-.005-.649-.005-.971v-.638c-.005-1.8-.005-3.6-.005-5.4v-5.053c0-.123.011-.241.016-.365,1.271-.263,2.526-.5,3.776-.778q1.754-.386,3.486-.859,1.247-.337,2.478-.724c1.368-.424,2.72-.891,4.066-1.395a.992.992,0,0,1,.681.016c.821.354,1.658.687,2.495.981a55.233,55.233,0,0,0,8.47,2.248c.075.016.156.027.23.043.537.1,1.073.193,1.62.284.177.032.359.06.542.091.167.027.333.059.5.086v.493c0,4.291.021,8.588-.005,12.884a17.6,17.6,0,0,1-.574,4.479,15.118,15.118,0,0,1-.992,2.7l-.049.922a7.071,7.071,0,0,1-.858.687c-.086.139-.177.273-.273.408-.3.429-.622.847-.966,1.25a18.623,18.623,0,0,1-4.184,3.573c-1.952,1.25-4.023,2.312-6.045,3.444a.551.551,0,0,1-.251.057A.366.366,0,0,1-802.217-4007.25Zm-1.909-4.828c.649.365,1.3.73,1.936,1.105a.557.557,0,0,0,.461-.059c1.116-.644,2.237-1.277,3.337-1.948q.354-.209.708-.434a15.3,15.3,0,0,0,2.65-2.081,11.994,11.994,0,0,0,3.315-5.9l.166-.821c.049-.268.086-.536.112-.815.043-.365.07-.735.086-1.115.005-.14.01-.284.01-.43.022-1.19.027-2.392.027-3.583v-.151c0-.351,0-.7-.005-1.045h0c0-.1,0-.208,0-.311,0-.078,0-.155,0-.233q0-.039,0-.078c0-.4,0-.794-.005-1.19,0-1.207-.005-2.414-.005-3.621v-.386c-.027-.016-.054-.038-.08-.053-.123-.027-.2-.053-.3-.064-.225-.043-.45-.075-.676-.113-.241-.043-.483-.086-.724-.134q-1.5-.282-2.987-.66a34.442,34.442,0,0,1-5.584-1.915.9.9,0,0,0-.724-.027c-1.931.649-3.852,1.325-5.8,1.894-1.459.429-2.961.708-4.49,1.062v.949c0,.177,0,.349-.005.526v1.078c-.01,1.8-.021,3.6-.01,5.407,0,.177,0,.349,0,.526,0,.359,0,.719.011,1.078q0,.668.016,1.336a13.266,13.266,0,0,0,.686,4.066c.06.182.123.359.193.536q.034.086.069.17c.126.3.26.6.414.887a12.72,12.72,0,0,0,4.039,4.576c.284.2.569.4.864.584.746.494,1.519.939,2.291,1.384Zm-1.3-7.2a1.637,1.637,0,0,1-1.089-.821l-.038-.059-2.66-4.49a1.248,1.248,0,0,1-.1-.188,1.553,1.553,0,0,1-.1-1.148,1.473,1.473,0,0,1,.671-.8,1.41,1.41,0,0,1,1.877.429l.038.038.053.107c.284.461.563.933.842,1.406l1.116,1.888,5.568-4.64c.489-.4.966-.8,1.449-1.2l.761-.633a1.611,1.611,0,0,1,1.395-.392,1.4,1.4,0,0,1,.966.821,1.458,1.458,0,0,1-.526,1.829v-.005l-.177.145c-.923.762-1.84,1.529-2.762,2.3l-5.761,4.8c-.075.059-.145.118-.215.177a1.806,1.806,0,0,1-1.1.461A1.35,1.35,0,0,1-805.43-4019.276Z" transform="translate(842.059 4058.037)"/></g></svg>