<svg xmlns="http://www.w3.org/2000/svg" width="49.985" height="49.98" viewBox="0 0 49.985 49.98"><path d="M19.577,39.154A19.579,19.579,0,0,1,5.733,5.733a19.584,19.584,0,0,1,27.689,0h0A19.577,19.577,0,0,1,19.577,39.154Zm0-37.69A18.116,18.116,0,0,0,6.767,32.392a18.116,18.116,0,1,0,25.62-25.62h0a18,18,0,0,0-12.81-5.308Z"/><path d="M23.077,39.156A16.084,16.084,0,1,1,34.453,11.7h0A16.079,16.079,0,0,1,23.077,39.156Zm0-30.7a14.622,14.622,0,1,0,10.346,4.278A14.567,14.567,0,0,0,23.077,8.458Z" transform="translate(-3.5 -3.5)"/><path d="M75.878,79.712a3.314,3.314,0,0,1-2.354-.975L59.45,64.663l5.223-5.223L78.747,73.514a3.33,3.33,0,0,1,0,4.708l-.515.515a3.314,3.314,0,0,1-2.354.975ZM61.514,64.663,74.559,77.7a1.87,1.87,0,0,0,2.644,0l.515-.515a1.87,1.87,0,0,0,0-2.644L64.678,61.5l-3.159,3.159Z" transform="translate(-29.737 -29.732)"/><path d="M24.4,31.115l-5.763-7.407L14.195,28l-1.015-1.05,5.613-5.413,5.563,7.147L32.4,17.54l6.882,5.313-.89,1.155L32.7,19.614Z" transform="translate(-6.593 -8.773)"/><path d="M26.123,57.18,21.27,55.241V44.52h4.853Zm-3.389-2.929,1.929.775V45.984H22.734v8.272Z" transform="translate(-10.639 -22.269)"/><path d="M37.913,59.971h-4.7V49.43h4.7Zm-3.244-1.459h1.784V50.889H34.669Z" transform="translate(-16.612 -24.725)"/><path d="M45,58.285V46.1h4.7V56.406L45,58.29Zm1.459-10.726v8.572l1.784-.715V47.559Z" transform="translate(-22.509 -23.059)"/></svg>