<svg xmlns="http://www.w3.org/2000/svg" width="50" height="49.985" viewBox="0 0 50 49.985"><g transform="translate(0 -0.01)"><path d="M-1242.084-3902.042h-39.956a5.026,5.026,0,0,1-5.02-5.02v-35.931a5.025,5.025,0,0,1,5.02-5.02h4.11v-2.565a1.454,1.454,0,0,1,1.449-1.45,1.451,1.451,0,0,1,1.45,1.45v2.565h25.937v-2.565a1.451,1.451,0,0,1,1.45-1.45,1.451,1.451,0,0,1,1.45,1.45v2.565h4.114a5.025,5.025,0,0,1,5.02,5.02v35.931a5.026,5.026,0,0,1-5.02,5.02Zm-43.525-5.015a3.572,3.572,0,0,0,3.57,3.57h39.961a3.572,3.572,0,0,0,3.57-3.57v-30.482h-47.1Zm47.1-31.932v-4a3.572,3.572,0,0,0-3.57-3.571h-4.114v2.255a1.451,1.451,0,0,1-1.45,1.45v-.005a1.452,1.452,0,0,1-1.45-1.45v-2.25h-25.937v2.255a1.451,1.451,0,0,1-1.45,1.45v-.005a1.451,1.451,0,0,1-1.449-1.45v-2.25h-4.11v0a3.572,3.572,0,0,0-3.57,3.57v4Zm-10.153,29.6a1.629,1.629,0,0,1-1.63-1.63v-1.155a1.63,1.63,0,0,1,1.63-1.631h1.154a1.631,1.631,0,0,1,1.631,1.631v1.155a1.63,1.63,0,0,1-1.631,1.63Zm-9.319,0a1.629,1.629,0,0,1-1.63-1.63v-1.155a1.63,1.63,0,0,1,1.63-1.631h1.154a1.631,1.631,0,0,1,1.631,1.631v1.155a1.63,1.63,0,0,1-1.631,1.63Zm-9.314,0a1.629,1.629,0,0,1-1.63-1.63v-1.155a1.63,1.63,0,0,1,1.63-1.631h1.155a1.631,1.631,0,0,1,1.631,1.631v1.155a1.63,1.63,0,0,1-1.631,1.63Zm-9.319,0a1.629,1.629,0,0,1-1.63-1.63v-1.155a1.63,1.63,0,0,1,1.63-1.631h1.156a1.63,1.63,0,0,1,1.63,1.631v1.155a1.63,1.63,0,0,1-1.63,1.63Zm27.953-9.194a1.629,1.629,0,0,1-1.63-1.63v-1.155a1.63,1.63,0,0,1,1.63-1.63h1.154a1.63,1.63,0,0,1,1.631,1.63v1.155a1.63,1.63,0,0,1-1.631,1.63Zm-9.319,0a1.629,1.629,0,0,1-1.63-1.63v-1.155a1.63,1.63,0,0,1,1.63-1.63h1.154a1.63,1.63,0,0,1,1.631,1.63v1.155a1.63,1.63,0,0,1-1.631,1.63Zm-9.314,0a1.63,1.63,0,0,1-1.63-1.63v-1.155a1.63,1.63,0,0,1,1.63-1.63h1.155a1.631,1.631,0,0,1,1.631,1.63v1.155a1.63,1.63,0,0,1-1.631,1.63Zm-9.319,0a1.63,1.63,0,0,1-1.63-1.63v-1.155a1.63,1.63,0,0,1,1.63-1.63h1.156a1.63,1.63,0,0,1,1.63,1.63v1.155a1.63,1.63,0,0,1-1.63,1.63Zm27.953-9.194a1.629,1.629,0,0,1-1.63-1.629v-1.155a1.63,1.63,0,0,1,1.63-1.631h1.154a1.631,1.631,0,0,1,1.631,1.631v1.155a1.63,1.63,0,0,1-1.631,1.629Zm-9.319,0a1.629,1.629,0,0,1-1.63-1.629v-1.155a1.63,1.63,0,0,1,1.63-1.631h1.154a1.631,1.631,0,0,1,1.631,1.631v1.155a1.63,1.63,0,0,1-1.631,1.629Zm-9.314,0a1.629,1.629,0,0,1-1.63-1.629v-1.155a1.63,1.63,0,0,1,1.63-1.631h1.155a1.631,1.631,0,0,1,1.631,1.631v1.155a1.63,1.63,0,0,1-1.631,1.629Zm-9.319,0a1.629,1.629,0,0,1-1.63-1.629v-1.155a1.63,1.63,0,0,1,1.63-1.631h1.156a1.63,1.63,0,0,1,1.63,1.631v1.155a1.63,1.63,0,0,1-1.63,1.629Z" transform="translate(1287.059 3952.037)"/></g></svg>