<svg xmlns="http://www.w3.org/2000/svg" width="50" height="46.456" viewBox="0 0 50 46.456"><g transform="translate(-521.65 140.32)"><path d="M-656.961-3963.9h-5.383v-.011h-.707c-2.724,0-4.358-2.211-4.358-4.94v-34.013h7.114v-.005h1.721v-6.321h0v-1.165h41.165v36.833a9.631,9.631,0,0,1-9.623,9.623Zm29.924-1.618a8.022,8.022,0,0,0,8.015-8.01v-35.21h-37.939v39.881q0,.253-.025.5a5.279,5.279,0,0,1-.768,2.839Zm-38.759-3.333c0,1.839.911,3.328,2.745,3.328h1.149a3.279,3.279,0,0,0,1.607-.416,2.771,2.771,0,0,0,.378-.243,3.309,3.309,0,0,0,1.343-2.669v-32.4H-665.8Zm27.228-3.452a.81.81,0,0,1-.809-.81.809.809,0,0,1,.809-.809h16.72a.809.809,0,0,1,.809.809.809.809,0,0,1-.809.81Zm0-4.315a.809.809,0,0,1-.809-.809.81.81,0,0,1,.809-.81h16.72a.809.809,0,0,1,.809.81.809.809,0,0,1-.809.809Zm-14.089-4.314a.809.809,0,0,1-.809-.81.809.809,0,0,1,.809-.809h30.809a.809.809,0,0,1,.809.809.809.809,0,0,1-.809.81Zm0-4.315a.809.809,0,0,1-.809-.809.809.809,0,0,1,.809-.81h30.809a.809.809,0,0,1,.809.81.809.809,0,0,1-.809.809Zm29.223-6.958-4.621-6.581a1.348,1.348,0,0,1-1.248.836,1.348,1.348,0,0,1-1.348-1.331l-5.27,3.514v1.425a1.349,1.349,0,0,1-1.348,1.349,1.349,1.349,0,0,1-1.348-1.349v-1.615l-8.964-4.925v1.022a1.348,1.348,0,0,1-1.348,1.348,1.348,1.348,0,0,1-1.349-1.348v-.595l-3.8,2.126a.551.551,0,0,1-.366.059h-.005a.551.551,0,0,1-.367-.264.539.539,0,0,1,.205-.733l4.331-2.428v-1.525a1.349,1.349,0,0,1,1.349-1.349,1.349,1.349,0,0,1,1.348,1.349v1.108l8.964,4.925v-1.508a1.348,1.348,0,0,1,1.348-1.349,1.348,1.348,0,0,1,1.348,1.349v1.625l5.27-3.512v-2.078a1.348,1.348,0,0,1,1.349-1.349,1.348,1.348,0,0,1,1.348,1.349v2.141l5.4,7.691a.536.536,0,0,1-.13.75.528.528,0,0,1-.309.1A.54.54,0,0,1-623.434-3992.207Zm-43.975-10.658v0Z" transform="translate(1189.059 3870.036)"/></g></svg>