<svg xmlns="http://www.w3.org/2000/svg" width="50" height="49.19" viewBox="0 0 50 49.19"><defs><style>.a{fill:#fff;}</style></defs><g transform="translate(0 -0.81)"><path d="M24.525,49.86A24.525,24.525,0,1,1,49.05,25.335,24.55,24.55,0,0,1,24.525,49.86Zm0-47.565a23.04,23.04,0,1,0,23.04,23.04A23.065,23.065,0,0,0,24.525,2.3Z"/><path d="M27.5,49.86A21.55,21.55,0,1,1,49.05,28.31,21.575,21.575,0,0,1,27.5,49.86Zm0-41.62A20.065,20.065,0,1,0,47.565,28.305,20.086,20.086,0,0,0,27.5,8.24Z" transform="translate(-2.975 -2.975)"/><path d="M48.305,29.05a.747.747,0,0,1-.745-.745V11.955a.745.745,0,0,1,1.49,0v16.35a.747.747,0,0,1-.745.745Z" transform="translate(-23.78 -5.2)"/><path d="M46.075,49.86a2.975,2.975,0,1,1,2.975-2.975A2.979,2.979,0,0,1,46.075,49.86Zm0-4.46a1.485,1.485,0,1,0,1.485,1.485A1.485,1.485,0,0,0,46.075,45.4Z" transform="translate(-21.55 -21.55)"/><circle cx="9.27" cy="9.27" r="9.27" transform="translate(31.46 31.46)"/><path class="a" d="M81.465,79.335a1.313,1.313,0,1,1-2.625,0,1.313,1.313,0,1,1,2.625,0ZM79.1,68.86h2.09V77.1H79.1Z" transform="translate(-39.42 -34.025)"/></g></svg>