<svg xmlns="http://www.w3.org/2000/svg" width="50" height="46.587" viewBox="0 0 50 46.587"><defs><style>.a{fill:#000;}</style></defs><g transform="translate(0.32 -7.3)"><path class="a" d="M49.516,64.868,47.98,56.945l-1.536-7.922L44.907,41.1l-1.772-9.14H-.32L6.224,65.711H49.68l-.164-.843ZM7.489,64.149,1.544,33.522H41.871l3.037,15.642,1.536,7.917,1.372,7.069Z" transform="translate(0 -11.824)"/><path class="a" d="M53.613,7.3H20.549A4.554,4.554,0,0,0,16,11.849V21.7h1.562V11.849a3,3,0,0,1,2.988-2.988H53.613A3,3,0,0,1,56.6,11.849V52.326H16v1.562H58.163V11.849A4.554,4.554,0,0,0,53.613,7.3Z" transform="translate(-8.649)"/><path class="a" d="M32.793.041H0V-1H32.793Z" transform="translate(12.035 12.724)"/><path class="a" d="M32.793.041H0V-1H32.793Z" transform="translate(12.035 16.368)"/></g></svg>