<svg xmlns="http://www.w3.org/2000/svg" width="50" height="52.82" viewBox="0 0 50 52.82"><g transform="translate(-3.476 -0.3)"><path d="M4.159,52.82V12.53H1.753A1.757,1.757,0,0,1,.531,9.515l0,0L9.815.494a1.757,1.757,0,0,1,2.444,0L21.544,9.51a1.76,1.76,0,0,1-1.227,3.015H17.91v12.2L26.479,9.88a1.723,1.723,0,0,1,2.988,0L49.76,45.03h.005a1.724,1.724,0,0,1-1.492,2.587H17.91v5.2ZM10.921,1.632l-9.28,9.016a.17.17,0,0,0-.041.187.165.165,0,0,0,.153.108H5.746V51.234H16.324V47.616H7.682A1.724,1.724,0,0,1,6.19,45.03L16.324,27.472V10.938h3.993a.174.174,0,0,0,.117-.295l-9.28-9.01a.171.171,0,0,0-.232,0ZM25.1,41.989a2.943,2.943,0,0,0,2.946,2.946,2.948,2.948,0,0,0,0-5.9A2.968,2.968,0,0,0,25.1,41.989ZM25.7,37h4.665V18.617H25.7Z" transform="translate(3.476 0.3)"/></g></svg>