<svg xmlns="http://www.w3.org/2000/svg" width="50" height="46.21" viewBox="0 0 50 46.21"><g transform="translate(0 -3.79)"><path d="M-575.515-4708.91h-8.8A2.685,2.685,0,0,1-587-4711.59v-7.584a2.688,2.688,0,0,1,2.685-2.685h1.505a22.82,22.82,0,0,1-.4-4.246,23.13,23.13,0,0,1,23.1-23.1,23.132,23.132,0,0,1,23.1,23.1A23.132,23.132,0,0,1-560.1-4703,23,23,0,0,1-575.515-4708.91Zm15.41,4.484a21.7,21.7,0,0,0,21.68-21.68,21.7,21.7,0,0,0-21.68-21.68,21.7,21.7,0,0,0-21.675,21.68,21.629,21.629,0,0,0,.42,4.246h1.08a20.473,20.473,0,0,1-.44-4.246A20.637,20.637,0,0,1-560.1-4746.72a20.639,20.639,0,0,1,20.615,20.615A20.638,20.638,0,0,1-560.1-4705.49a20.514,20.514,0,0,1-11.36-3.419h-1.825A21.554,21.554,0,0,0-560.1-4704.425Zm0-2.49a19.212,19.212,0,0,0,19.195-19.19A19.216,19.216,0,0,0-560.1-4745.3a19.211,19.211,0,0,0-19.19,19.194,19.226,19.226,0,0,0,.475,4.246h11.76a2.688,2.688,0,0,1,2.685,2.685v7.584a2.685,2.685,0,0,1-2.685,2.681h-1.565A19.064,19.064,0,0,0-560.1-4706.915Zm-6.96-3.17a1.511,1.511,0,0,0,1.51-1.505v-7.584a1.508,1.508,0,0,0-1.51-1.5h-17.25a1.5,1.5,0,0,0-1.5,1.5v7.584a1.506,1.506,0,0,0,1.5,1.505h17.25Zm-7.905-2.905a.609.609,0,0,1-.22-.2,1.9,1.9,0,0,1-.145-.286c-.04-.1-.08-.22-.12-.339l-.57-1.565-.56-1.521c-.02-.055-.04-.109-.06-.165a1.666,1.666,0,0,1-.05-.174.492.492,0,0,1-.02-.161.453.453,0,0,1,.13-.3.453.453,0,0,1,.335-.135.389.389,0,0,1,.35.15,1.913,1.913,0,0,1,.21.484l1.08,3.185,1.08-3.209c.055-.165.1-.286.125-.351a.479.479,0,0,1,.14-.18.4.4,0,0,1,.265-.08.448.448,0,0,1,.23.06.444.444,0,0,1,.17.165l0,.005a.42.42,0,0,1,.06.209.86.86,0,0,1-.02.15,1.585,1.585,0,0,1-.05.165l-.06.165-1.15,3.1c-.04.12-.08.235-.125.339a1.539,1.539,0,0,1-.14.286.636.636,0,0,1-.1.112l0,0a.92.92,0,0,1-.11.08l-.023.013a.685.685,0,0,1-.316.067A.674.674,0,0,1-574.97-4712.99Zm-4.05-.075a.633.633,0,0,1-.135-.439v-3.75a.661.661,0,0,1,.13-.44.572.572,0,0,1,.07-.064.453.453,0,0,1,.27-.08.464.464,0,0,1,.355.145h0a.626.626,0,0,1,.135.44v3.75a.625.625,0,0,1-.135.439.445.445,0,0,1-.355.146A.435.435,0,0,1-579.02-4713.065Zm-4.35.061a.615.615,0,0,1-.455-.14.628.628,0,0,1-.139-.45v-3.665a.635.635,0,0,1,.135-.44.443.443,0,0,1,.345-.145.472.472,0,0,1,.355.145.627.627,0,0,1,.135.44v3.46h1.95a.528.528,0,0,1,.36.115.354.354,0,0,1,.125.285.347.347,0,0,1-.125.285.507.507,0,0,1-.36.11Zm12.87,0a.622.622,0,0,1-.455-.14.628.628,0,0,1-.135-.45v-3.575a.817.817,0,0,1,.06-.34.373.373,0,0,1,.2-.195.8.8,0,0,1,.335-.061h2.545a.49.49,0,0,1,.345.105.325.325,0,0,1,.11.265.355.355,0,0,1-.11.275.492.492,0,0,1-.345.1h-2.17v1.17h2a.49.49,0,0,1,.33.1.336.336,0,0,1,.1.26.35.35,0,0,1-.1.266.463.463,0,0,1-.33.1h-2v1.35h2.245a.507.507,0,0,1,.345.11v0a.37.37,0,0,1,.115.28.357.357,0,0,1-.115.274.506.506,0,0,1-.345.105Zm7.595-13.125a2.807,2.807,0,0,1,2.09-2.714v-14.757a.709.709,0,0,1,.71-.709.712.712,0,0,1,.71.709v14.754h.015a2.807,2.807,0,0,1,2.1,2.715,2.813,2.813,0,0,1-2.81,2.81A2.813,2.813,0,0,1-562.905-4726.135Zm1.42,0a1.388,1.388,0,0,0,1.385,1.385,1.378,1.378,0,0,0,1.385-1.385,1.386,1.386,0,0,0-1.291-1.387.739.739,0,0,1-.1.007.779.779,0,0,1-.1-.006A1.39,1.39,0,0,0-561.485-4726.14Z" transform="translate(587 4753)"/></g></svg>