<svg xmlns="http://www.w3.org/2000/svg" width="67.587" height="49.072" viewBox="0 0 67.587 49.072"><g transform="translate(-1.5 -9.15)"><path d="M28.88,47.2l1.38-.828c.4.744.852,1.128,1.428,1.128a.915.915,0,0,0,1-.8,1.349,1.349,0,0,0-.553-.96c-1.787-1.5-2.844-2.316-2.844-3.54a2.264,2.264,0,0,1,2.364-2.172,3.211,3.211,0,0,1,2.5,1.38l-1.224,1.08a1.687,1.687,0,0,0-1.3-.888c-.432,0-.732.252-.732.6s.252.552.5.768c1.608,1.417,2.892,2.088,2.892,3.66a2.437,2.437,0,0,1-2.64,2.448A2.934,2.934,0,0,1,28.88,47.2ZM40.8,48.856l-2.664-3.828v3.828H36.488V40.24h1.644V43.2l2.34-2.964h1.98l-3.024,3.839,3.312,4.776Zm-15.252,0V40.24h1.644v8.616Zm-3.6,0-1.931-3.648h-.157v3.648H18.212V40.24h2a3.225,3.225,0,0,1,2.436.7,2.5,2.5,0,0,1,.7,1.8,2.275,2.275,0,0,1-1.656,2.292l2.04,3.828Zm-2.088-5.244h.756c.744,0,1.129-.3,1.129-.887,0-.564-.4-.877-1.176-.877h-.708ZM31.007,33.2a2.8,2.8,0,0,1,.053-.542L9.227,24.472a26.108,26.108,0,0,0-1.7,9.321.7.7,0,1,1-1.394,0,27.494,27.494,0,0,1,1.791-9.811l-3.787-1.42A31.536,31.536,0,0,0,2.091,33.793a1.045,1.045,0,1,1-2.091,0A33.6,33.6,0,0,1,2.179,21.829L.8,21.312a.7.7,0,0,1,.489-1.305l1.41.529A33.794,33.794,0,0,1,67.587,33.793a1.045,1.045,0,1,1-2.091,0A31.712,31.712,0,0,0,4.659,21.27l3.792,1.422a27.662,27.662,0,0,1,53,11.1.7.7,0,1,1-1.393,0,26.276,26.276,0,0,0-50.3-10.611L31.668,31.4a2.787,2.787,0,1,1-.661,1.8Z" transform="translate(1.5 9.15)"/></g></svg>