<svg xmlns="http://www.w3.org/2000/svg" width="50" height="50.318" viewBox="0 0 50 50.318"><defs><style>.a{fill:#000;}</style></defs><g transform="translate(-1234.831 -5695.999)"><g transform="translate(1234.42 5695.9)"><path class="a" d="M-1190.4-5482.744l0-.005h0a24.125,24.125,0,0,1-8.646,1.587,24.4,24.4,0,0,1-24.367-24.372,24.4,24.4,0,0,1,24.372-24.367,24.409,24.409,0,0,1,24.378,24.367,24.176,24.176,0,0,1-1.77,9.1l0,.007a9.72,9.72,0,0,1,3.023,7.056,9.8,9.8,0,0,1-9.781,9.787A9.764,9.764,0,0,1-1190.4-5482.744Zm1.542-.645a8.215,8.215,0,0,0,5.657,2.253,8.241,8.241,0,0,0,8.228-8.233,8.25,8.25,0,0,0-2.143-5.537,9.175,9.175,0,0,0-1.159-1.053,7.826,7.826,0,0,0-.958-.615,8.349,8.349,0,0,0-1.376-.6,8.162,8.162,0,0,0-2.592-.418,8.211,8.211,0,0,0-5.818,2.41,8.2,8.2,0,0,0-2.41,5.811,8.363,8.363,0,0,0,.368,2.442,8.64,8.64,0,0,0,.579,1.387l-.008,0,0,.006a7.233,7.233,0,0,0,.594.954h0a8.2,8.2,0,0,0,1.029,1.18l0,0Zm-33.07-22.149a22.9,22.9,0,0,0,22.87,22.875,22.673,22.673,0,0,0,7.684-1.326l.005,0a8.737,8.737,0,0,1-.57-.981l0,0a21.546,21.546,0,0,1-7.107,1.194,21.779,21.779,0,0,1-21.745-21.75,21.774,21.774,0,0,1,21.745-21.746v.005a21.773,21.773,0,0,1,21.751,21.745,21.6,21.6,0,0,1-1.333,7.5,9.1,9.1,0,0,1,.97.589l0,.01h0l0-.007a22.628,22.628,0,0,0,1.488-8.1,22.9,22.9,0,0,0-22.875-22.87A22.9,22.9,0,0,0-1221.927-5505.538Zm2.632,0a20.27,20.27,0,0,0,20.248,20.248,20,20,0,0,0,6.533-1.083,9.676,9.676,0,0,1-.472-3v-.005a9.8,9.8,0,0,1,9.786-9.781h0a9.6,9.6,0,0,1,3.182.535h0a20.152,20.152,0,0,0,1.214-6.91,20.274,20.274,0,0,0-20.249-20.248A20.262,20.262,0,0,0-1219.3-5505.538Zm33.649,22.255a.793.793,0,0,1-.549-.262l-.736-.842-1.013-1.149-.756-.867-.827-.943a.806.806,0,0,1-.146-.243.782.782,0,0,1,.217-.857.786.786,0,0,1,1.1.071l.015.015,0,0,.007,0h.005l1,1.144-.01.006.741.851,0,0,.012-.008.994,1.135-.012.008.032.036.232-.222,5.631-5.334,2.577-2.44a.774.774,0,0,1,1.1.031.774.774,0,0,1-.025,1.1h.01l-9.03,8.556a.762.762,0,0,1-.535.212Zm-16.361-22.28a2.954,2.954,0,0,1,2.208-2.857v-15.571a.753.753,0,0,1,.751-.751.753.753,0,0,1,.752.751v15.569a2.954,2.954,0,0,1,2.213,2.859,2.969,2.969,0,0,1-2.965,2.959A2.964,2.964,0,0,1-1202.007-5505.563Zm1.5,0a1.462,1.462,0,0,0,1.457,1.462,1.467,1.467,0,0,0,1.462-1.462,1.47,1.47,0,0,0-1.462-1.462A1.462,1.462,0,0,0-1200.5-5505.563Z" transform="translate(1223.83 5530)"/></g></g></svg>