<svg xmlns="http://www.w3.org/2000/svg" width="50" height="48.167" viewBox="0 0 50 48.167"><g transform="translate(-2.997 -5.21)"><path d="M-1503.8-3900.659a10.86,10.86,0,0,1-10.386-7.747v.179h-.971a3.953,3.953,0,0,1-3.948-3.948v-1.258a3.952,3.952,0,0,1,3.948-3.948h1.025a10.856,10.856,0,0,1,10.333-7.569h8.423v-3.691a2.963,2.963,0,0,1-2.16-2.847,2.961,2.961,0,0,1,2.956-2.956,2.961,2.961,0,0,1,2.956,2.956,2.963,2.963,0,0,1-2.16,2.847v3.691h8.422a10.86,10.86,0,0,1,10.333,7.563h1.024a3.953,3.953,0,0,1,3.949,3.954v1.258a3.951,3.951,0,0,1-3.949,3.949h-1.024a10.858,10.858,0,0,1-10.333,7.568Zm-9.245-13.454v2.611a9.26,9.26,0,0,0,9.245,9.25h18.437a9.26,9.26,0,0,0,9.245-9.25v-2.611a9.255,9.255,0,0,0-9.245-9.244H-1503.8A9.255,9.255,0,0,0-1513.05-3914.113Zm38.864,4.294h.175a2.358,2.358,0,0,0,2.356-2.357v-1.258a2.362,2.362,0,0,0-2.356-2.362h-.175Zm-43.333-3.614v1.258a2.359,2.359,0,0,0,2.356,2.356h.175v-5.971h-.175A2.359,2.359,0,0,0-1517.518-3913.433Zm21.568-18.06a1.363,1.363,0,0,0,1.364,1.364,1.363,1.363,0,0,0,1.364-1.364,1.363,1.363,0,0,0-1.364-1.364A1.363,1.363,0,0,0-1495.95-3931.493Zm-7.233,25.909a7.221,7.221,0,0,1-7.223-7.223,7.18,7.18,0,0,1,2.118-5.106,7.2,7.2,0,0,1,5.106-2.118h17.195a7.224,7.224,0,0,1,7.223,7.223,7.176,7.176,0,0,1-2.117,5.105,7.178,7.178,0,0,1-5.105,2.118Zm11.4-7.334a4.24,4.24,0,0,0,4.235,4.235,4.24,4.24,0,0,0,4.235-4.235,4.24,4.24,0,0,0-4.235-4.236A4.241,4.241,0,0,0-1491.784-3912.918Zm-14.074,0a4.24,4.24,0,0,0,4.235,4.235,4.24,4.24,0,0,0,4.235-4.235,4.24,4.24,0,0,0-4.235-4.236A4.24,4.24,0,0,0-1505.858-3912.918Zm15.666,0a2.643,2.643,0,0,1,2.643-2.643,2.65,2.65,0,0,1,2.643,2.643,2.646,2.646,0,0,1-2.643,2.643A2.643,2.643,0,0,1-1490.192-3912.918Zm-14.074,0a2.65,2.65,0,0,1,2.643-2.643,2.646,2.646,0,0,1,2.643,2.643,2.646,2.646,0,0,1-2.643,2.643A2.647,2.647,0,0,1-1504.266-3912.918Zm-15-23.388a.809.809,0,0,1-.6-.276.8.8,0,0,1,.085-1.125l7.765-6.655,18.538,5.828,10.291-10.291,11.708,11.15a.8.8,0,0,1,.026,1.125.8.8,0,0,1-1.125.026l-10.583-10.078-9.876,9.876-18.612-5.848-7.1,6.082a.8.8,0,0,1-.52.191Z" transform="translate(1523.059 3954.037)"/></g></svg>